<?xml version="1.0" encoding="UTF-8" standalone="no"?>
<!DOCTYPE svg PUBLIC "-//W3C//DTD SVG 1.1//EN" "http://www.w3.org/Graphics/SVG/1.1/DTD/svg11.dtd">
<svg version="1.1" xmlns="http://www.w3.org/2000/svg" xmlns:xlink="http://www.w3.org/1999/xlink" preserveAspectRatio="xMidYMid meet" viewBox="0 0 640 640" width="640" height="640"><defs><path d="M178.55 466.56C192.25 463.69 259.47 459.01 274.53 462.14C311.4 469.79 334.62 493 346.74 489.82C358.87 486.63 415.73 453.24 422.12 441.96C428.5 430.69 315.44 268.66 314.38 269.68C313.58 270.45 343.19 410.44 324.25 422.58C305.32 434.71 176.51 466.99 178.55 466.56Z" id="eYW3Gcx5"></path><path d="M437.54 462.83C389.14 501.64 357.7 519.49 343.22 516.38C324.14 512.28 301.41 491.9 279.25 486.67C250.46 479.87 216.89 479.59 178.53 485.82C262.46 542.33 314.47 572.08 334.55 575.05C381.99 582.09 418.05 562.8 433.04 539.3C438.46 530.8 439.96 505.31 437.54 462.83Z" id="cZvrbNJTN"></path></defs><g><g><use xlink:href="#eYW3Gcx5" opacity="1" fill="#4cd9db" fill-opacity="1"></use></g><g><use xlink:href="#cZvrbNJTN" opacity="1" fill="#d6e854" fill-opacity="1"></use></g></g></svg>