<?xml version="1.0" encoding="UTF-8" standalone="no"?>
<!DOCTYPE svg PUBLIC "-//W3C//DTD SVG 1.1//EN" "http://www.w3.org/Graphics/SVG/1.1/DTD/svg11.dtd">
<svg version="1.1" xmlns="http://www.w3.org/2000/svg" xmlns:xlink="http://www.w3.org/1999/xlink" viewBox="0 0 640 640" width="75" height="75">
  <defs>
    <path d="M242.61 172.4L244.67 174.53L246.67 176.61L248.6 178.64L250.47 180.64L252.29 182.59L254.04 184.49L255.73 186.36L257.35 188.18L258.92 189.96L260.43 191.69L261.87 193.38L263.25 195.03L264.57 196.63L265.83 198.19L267.03 199.71L268.17 201.19L269.25 202.62L270.26 204.01L271.22 205.35L272.11 206.65L272.94 207.91L273.71 209.13L274.42 210.3L275.06 211.43L275.65 212.51L276.17 213.55L276.64 214.55L277.04 215.51L277.38 216.42L277.66 217.29L277.88 218.11L278.03 218.89L278.13 219.63L278.16 220.33L278.14 220.98L278.05 221.59L277.9 222.16L277.69 222.68L277.16 223.52L276.33 224.54L275.19 225.72L273.77 227.06L272.08 228.53L270.13 230.14L267.94 231.88L265.51 233.72L262.87 235.67L260.02 237.7L256.98 239.82L253.76 242L250.38 244.24L246.85 246.53L243.17 248.86L239.38 251.21L235.47 253.58L231.47 255.95L227.38 258.32L223.22 260.67L219.01 263L214.75 265.29L210.46 267.53L206.15 269.71L201.85 271.83L197.55 273.86L193.27 275.81L189.03 277.65L184.84 279.38L180.72 281L176.67 282.47L172.71 283.81L168.86 284.99L165.12 286.01L161.52 286.85L158.06 287.5L154.75 287.96L151.62 288.22L148.67 288.25L145.92 288.06L144.74 287.88L143.45 287.61L142.04 287.24L140.52 286.78L138.89 286.22L137.14 285.56L135.27 284.81L133.29 283.97L131.19 283.03L128.99 281.99L126.66 280.86L124.22 279.64L121.67 278.32L119 276.9L116.22 275.39L113.32 273.79L110.31 272.09L107.18 270.29L103.94 268.4L100.58 266.41L97.11 264.33L93.53 262.15L89.83 259.88L86.01 257.52L82.08 255.05L78.04 252.5L73.88 249.84L69.61 247.1L65.22 244.25L60.72 241.31L56.1 238.28L51.37 235.15L46.52 231.93L41.56 228.61L36.48 225.2L31.29 221.69L25.99 218.09L20.57 214.39L15.03 210.59L9.38 206.7L12.61 205.75L15.79 204.82L18.94 203.93L22.04 203.08L25.1 202.25L28.12 201.46L31.1 200.7L34.04 199.97L36.94 199.27L39.8 198.61L42.61 197.98L45.38 197.38L48.12 196.81L50.81 196.28L53.46 195.78L56.07 195.31L58.64 194.87L61.17 194.47L63.65 194.09L66.1 193.76L68.5 193.45L70.86 193.17L73.19 192.93L75.47 192.72L77.71 192.54L79.9 192.4L82.06 192.28L84.18 192.2L86.25 192.15L88.29 192.14L90.28 192.15L92.23 192.2L94.14 192.28L96.01 192.4L97.84 192.54L99.63 192.72L101.38 192.93L103.08 193.18L104.75 193.45L106.37 193.76L107.6 194.03L108.84 194.34L110.07 194.68L111.31 195.06L112.54 195.47L113.77 195.92L115 196.39L116.24 196.88L117.47 197.4L118.69 197.94L119.92 198.51L121.14 199.09L122.36 199.68L123.58 200.29L124.8 200.91L126.01 201.54L127.22 202.17L128.43 202.81L129.63 203.46L130.83 204.1L132.02 204.74L133.21 205.38L134.4 206.02L135.58 206.64L136.75 207.26L137.92 207.86L139.09 208.45L140.24 209.03L141.4 209.58L142.54 210.12L143.68 210.63L144.81 211.12L145.93 211.58L147.05 212.01L148.16 212.41L149.26 212.78L150.35 213.11L151.44 213.41L152.51 213.66L153.58 213.88L154.42 213.99L155.33 214.04L156.3 214.03L157.33 213.95L158.43 213.8L159.6 213.59L160.83 213.32L162.13 212.98L163.5 212.58L164.92 212.11L166.42 211.58L167.98 210.98L169.61 210.32L171.3 209.59L173.06 208.8L174.88 207.95L176.77 207.03L178.72 206.04L180.74 204.99L182.83 203.88L184.98 202.7L187.2 201.46L189.48 200.15L191.83 198.78L194.24 197.34L196.72 195.84L199.26 194.27L201.87 192.64L204.55 190.94L207.29 189.18L210.1 187.36L212.97 185.47L215.91 183.51L218.91 181.5L221.98 179.41L225.12 177.26L228.32 175.05L231.58 172.77L234.92 170.43L238.31 168.02L240.49 170.23L242.61 172.4ZM114.29 4.94L115.3 6.11L116.64 7.72L118.3 9.76L120.27 12.18L122.52 14.98L125.03 18.13L127.78 21.59L130.76 25.35L133.93 29.37L137.28 33.64L140.79 38.13L144.45 42.81L148.22 47.67L152.09 52.66L156.04 57.77L160.06 62.98L164.1 68.25L168.17 73.56L172.24 78.89L176.28 84.22L180.28 89.51L184.22 94.74L188.08 99.88L191.83 104.92L195.47 109.82L198.95 114.56L202.28 119.12L205.42 123.47L208.35 127.58L211.07 131.44L213.53 135L215.74 138.26L217.65 141.17L219.27 143.73L220.55 145.9L221.5 147.66L222.07 148.98L222.26 149.84L222.22 150.23L222.1 150.65L221.91 151.1L221.64 151.58L221.29 152.1L220.87 152.64L220.38 153.22L219.81 153.82L219.17 154.46L218.45 155.13L217.66 155.83L216.79 156.56L215.84 157.33L214.82 158.12L213.73 158.95L212.56 159.8L211.32 160.69L210 161.61L208.6 162.56L207.13 163.54L205.59 164.55L203.97 165.6L202.28 166.67L200.51 167.78L198.66 168.91L196.74 170.08L194.75 171.28L192.68 172.51L190.54 173.77L188.32 175.07L186.02 176.39L183.65 177.75L181.21 179.13L178.69 180.55L176.09 182L173.42 183.48L170.68 184.99L167.86 186.53L164.97 188.11L162 189.71L161.68 189.88L161.36 190.03L161.04 190.18L160.72 190.32L160.4 190.45L160.07 190.57L159.74 190.68L159.41 190.79L159.07 190.88L158.74 190.97L158.4 191.05L158.06 191.12L157.72 191.18L157.38 191.23L157.04 191.27L156.7 191.31L156.35 191.34L156.01 191.36L155.67 191.37L155.32 191.37L154.98 191.36L154.63 191.35L154.29 191.32L153.95 191.29L153.61 191.25L153.27 191.2L152.93 191.14L152.59 191.07L152.25 191L151.91 190.92L151.58 190.82L151.25 190.72L150.92 190.61L150.59 190.5L150.26 190.37L149.94 190.23L149.62 190.09L149.3 189.94L148.99 189.78L148.68 189.61L147.52 188.97L146.37 188.34L145.24 187.72L144.12 187.12L143.01 186.53L141.92 185.95L140.84 185.39L139.77 184.84L138.71 184.3L137.67 183.78L136.63 183.27L135.61 182.77L134.6 182.29L133.61 181.82L132.63 181.36L131.66 180.92L130.7 180.49L129.75 180.07L128.82 179.67L127.9 179.28L126.99 178.91L126.1 178.54L125.21 178.19L124.34 177.86L123.48 177.54L122.64 177.23L121.8 176.93L120.98 176.65L120.17 176.38L119.38 176.12L118.59 175.88L117.82 175.65L117.07 175.44L116.32 175.24L115.58 175.05L114.86 174.87L114.15 174.71L113.46 174.56L112.77 174.43L112.1 174.3L111.62 174.22L111.1 174.13L110.54 174.03L109.96 173.93L109.34 173.83L108.7 173.72L108.03 173.61L107.33 173.5L106.6 173.38L105.85 173.26L105.08 173.14L104.28 173.02L103.47 172.9L102.63 172.78L101.77 172.66L100.89 172.54L100 172.42L99.09 172.3L98.16 172.19L97.22 172.07L96.27 171.97L95.31 171.86L94.33 171.76L93.34 171.67L92.35 171.58L91.35 171.49L90.34 171.41L89.33 171.34L88.31 171.28L87.28 171.22L86.26 171.17L85.23 171.13L84.21 171.1L83.18 171.08L82.16 171.06L81.14 171.06L80.12 171.07L79.11 171.09L78.11 171.12L77.11 171.17L75.54 171.28L73.88 171.47L72.14 171.72L70.32 172.03L68.42 172.4L66.46 172.82L64.44 173.3L62.37 173.83L60.24 174.4L58.08 175.01L55.88 175.65L53.66 176.33L51.4 177.04L49.14 177.78L46.86 178.54L44.58 179.31L42.3 180.11L40.03 180.91L37.77 181.72L35.54 182.54L33.33 183.36L31.15 184.17L29.02 184.98L26.92 185.78L24.89 186.56L22.9 187.33L20.99 188.07L19.14 188.79L17.37 189.49L15.68 190.15L14.08 190.77L12.57 191.36L11.17 191.9L9.87 192.4L8.69 192.85L7.63 193.24L6.69 193.58L5.88 193.85L5.22 194.06L4.69 194.21L4.73 194.12L5.07 193.83L5.69 193.34L6.59 192.66L7.75 191.81L9.17 190.8L10.82 189.65L12.71 188.36L14.82 186.95L17.15 185.43L19.67 183.81L22.38 182.11L25.28 180.34L28.34 178.51L31.56 176.64L34.92 174.73L38.43 172.81L42.06 170.87L45.8 168.95L49.65 167.04L53.6 165.16L57.63 163.32L61.73 161.54L65.9 159.83L70.11 158.2L74.37 156.67L78.66 155.24L82.97 153.94L87.29 152.76L91.61 151.73L95.92 150.86L100.2 150.16L104.46 149.65L108.67 149.32L112.82 149.21L116.91 149.32L120.93 149.66L124.86 150.25L128.7 151.1L132.42 152.23L135.88 153.15L138.91 153.43L141.53 153.1L143.77 152.18L145.64 150.71L147.15 148.73L148.33 146.25L149.19 143.33L149.75 139.98L150.02 136.25L150.04 132.15L149.8 127.74L149.33 123.03L148.65 118.07L147.77 112.87L146.72 107.49L145.5 101.94L144.14 96.26L142.66 90.48L141.07 84.64L139.38 78.77L137.63 72.9L135.81 67.05L133.96 61.28L132.09 55.6L130.22 50.05L128.36 44.66L126.53 39.46L124.75 34.5L123.03 29.79L121.4 25.37L119.87 21.27L118.46 17.54L117.19 14.19L116.07 11.26L115.12 8.78L114.37 6.79L113.81 5.31L113.48 4.39L113.4 4.05L113.65 4.25L114.29 4.94Z" id="cb0yzVko7">
    </path>
  </defs>
  <g>
    <g>
      <use xlink:href="#cb0yzVko7" opacity="1" fill="#4cc8db" fill-opacity="1"></use>
    </g>
  </g>
</svg>
