
		<svg xmlns="http://www.w3.org/2000/svg" xmlns:xlink="http://www.w3.org/1999/xlink" version="1.1" width="3153.813287759026" height="818.0969192128721">
			
			<g transform="scale(7.690664387951293) translate(10, 10)">
				<defs id="SvgjsDefs4594"><linearGradient id="SvgjsLinearGradient4599"><stop id="SvgjsStop4600" stop-color="#2d388a" offset="0"></stop><stop id="SvgjsStop4601" stop-color="#00aeef" offset="1"></stop></linearGradient></defs><g id="SvgjsG4595" featureKey="symbolFeature-0" transform="matrix(0.7802653816671162,0,0,0.7802653816671162,17.310512642547017,14.104806085193703)" fill="url(#SvgjsLinearGradient4599)"><g xmlns="http://www.w3.org/2000/svg"><path d="M3.455,59.074C3.997,31.037,33.352,10.67,65.767,7.953c7.893-0.659,21.247-0.844,31.131,2.25l-9.352,17.253   c-6.528-1.661-14.235-2.134-21.918-1.797c-33.064,1.144-53.872,20.544-54.336,40.159c-0.244,10.416,4.785,20.447,14.77,26.248   l-0.652,0.557C10.918,85.411,3.16,74.064,3.455,59.074z"></path><path d="M18.844,65.656c3.279-16.372,21.514-28.878,50.168-27.383c3.968,0.209,8.473,0.598,12.494,1.479l-8.283,15.273   c-2.578-0.354-6.603-1.071-10.058-1.257C40.59,52.587,26.7,61.927,24.396,73.837c-1.237,6.395,1.385,13.541,7.928,18.034   l-0.656,0.504C20.464,86.175,16.835,75.665,18.844,65.656z"></path><path d="M32.375,73.946c5.484-9.222,22.011-12.208,36.767-8.624l-4.326,7.93c-11.73-2.699-25.31-0.866-29.202,5.896   c-2.116,3.68-0.936,8.737,1.454,12.306l-0.438,0.441C31.113,86.96,29.106,79.448,32.375,73.946z"></path></g></g><g id="SvgjsG4596" featureKey="nameFeature-0" transform="matrix(0.9977080669508763,0,0,0.9977080669508763,113.00000047574427,22.302434318432873)" fill="#1e5b87"><path d="M13.24 37.84 c-1.5733 1.44 -3.7068 2.1602 -6.4 2.1602 l-6.84 0 l0 -30 l5.84 0 c1.6 0 2.9333 0.20668 4 0.62 s1.92 0.97332 2.56 1.68 s1.0867 1.5267 1.34 2.46 s0.38 1.9066 0.38 2.92 c0 1.0933 -0.32668 2.1266 -0.98 3.1 s-1.5266 1.8866 -2.62 2.74 c0.42668 0.26668 0.76 0.47336 1 0.62004 s0.46668 0.28668 0.68 0.42 c0.34668 0.29332 0.73336 0.64664 1.16 1.06 s0.82 0.89332 1.18 1.44 s0.66 1.1667 0.9 1.86 s0.36 1.4666 0.36 2.32 c0 1.4933 -0.22 2.7733 -0.66 3.84 s-1.0733 1.9867 -1.9 2.76 z M6.8 12 l-4.72 0.000078124 l0 10.8 l5.12 0 c0.72 0 1.38 -0.13332 1.98 -0.4 s1.12 -0.63336 1.56 -1.1 s0.78668 -1.0067 1.04 -1.62 s0.38 -1.28 0.38 -2 c0 -0.50668 -0.07332 -1.0934 -0.22 -1.76 s-0.42 -1.2867 -0.82 -1.86 s-0.94668 -1.06 -1.64 -1.46 s-1.5866 -0.6 -2.68 -0.6 z M7.04 24.8 l-4.96 0.000078124 l0 13.08 l4.28 0 c0.88 0 1.76 -0.10668 2.64 -0.32 s1.68 -0.57332 2.4 -1.08 s1.3 -1.1734 1.74 -2 s0.66 -1.8534 0.66 -3.08 c0 -1.12 -0.17332 -2.1 -0.52 -2.94 s-0.82668 -1.5267 -1.44 -2.06 s-1.3333 -0.93332 -2.16 -1.2 s-1.7067 -0.4 -2.64 -0.4 z M34.88 40 l-2.2 -8.84 l-9.76 0 l-2.2 8.84 l-2 0 l8.28 -30 l1.72 0 l8.24 30 l-2.08 0 z M27.92 11.879999999999999 l-4.52 17.36 l8.76 0 z M49.720000000000006 26.28 l0 13.72 l-2.16 0 l0 -13.72 l-7.24 -16.28 l2.48 0 l5.8 13.88 l5.88 -13.88 l2.48 0 z M59.800000000000004 40 l0 -30 l2.16 0 l0 27.84 l10.2 0 l0 2.16 l-12.36 0 z M74.4 40 l0 -30 l2.56 0 l0 30 l-2.56 0 z M94.64 40 l-11.6 -25.76 l0 25.76 l-2.2 0 l0 -30 l2.36 0 l11.6 24.6 l0.28 -24.6 l2.16 0 l0 30 l-2.6 0 z M100.96000000000001 40 l0 -30 l14.72 0 l0 2.32 l-12.64 0 l0 11.4 l12.52 0 l0 1.84 l-12.52 0 l0 12.12 l12.92 0 l0 2.32 l-15 0 z M133.48 40.36 c-1.3067 0 -2.4669 -0.17348 -3.4802 -0.52016 s-1.8666 -0.9 -2.56 -1.66 s-1.2066 -1.7533 -1.54 -2.98 s-0.47332 -2.7067 -0.42 -4.44 l2.4 0 c0 0.85332 0.04 1.74 0.12 2.66 s0.29332 1.76 0.64 2.52 s0.87336 1.38 1.58 1.86 s1.6867 0.72 2.94 0.72 c1.0667 0 1.9734 -0.16 2.72 -0.48 s1.3534 -0.74668 1.82 -1.28 s0.79336 -1.16 0.98004 -1.88 s0.28 -1.4667 0.28 -2.24 c0 -0.90668 -0.16668 -1.7 -0.5 -2.38 s-0.77332 -1.2867 -1.32 -1.82 s-1.1867 -1.0066 -1.92 -1.42 s-1.5 -0.78 -2.3 -1.1 c-1.28 -0.50668 -2.4 -1.0067 -3.36 -1.5 s-1.7467 -1.0466 -2.36 -1.66 s-1.0733 -1.3266 -1.38 -2.14 s-0.46 -1.8066 -0.46 -2.98 c0 -2.6667 0.7 -4.6532 2.1 -5.96 s3.4067 -1.96 6.02 -1.96 c2.2667 0 4.06 0.66 5.38 1.98 s1.98 3.3 1.98 5.94 l0 2.2 l-2.24 0 l0 -2.4 c0 -0.82668 -0.1 -1.5934 -0.3 -2.3 s-0.51332 -1.3267 -0.94 -1.86 s-0.96668 -0.95332 -1.62 -1.26 s-1.4333 -0.46 -2.34 -0.46 c-2.1333 0 -3.66 0.56 -4.58 1.68 s-1.34 2.6267 -1.26 4.52 c0.02668 0.82668 0.18 1.5334 0.46 2.12 s0.65332 1.1 1.12 1.54 s1.0267 0.83332 1.68 1.18 s1.38 0.69336 2.18 1.04 c0.93332 0.4 1.86 0.82668 2.78 1.28 s1.78 1.0133 2.58 1.68 c0.8 0.69332 1.46 1.5 1.98 2.42 s0.78 2.06 0.78 3.42 c0 2.64 -0.67332 4.62 -2.02 5.94 s-3.22 1.98 -5.62 1.98 z M151.76 40.36 c-5.04 0 -7.56 -2.64 -7.56 -7.92 l0 -14.8 c0 -2.6667 0.63332 -4.6532 1.9 -5.96 s3.3134 -1.96 6.14 -1.96 c2.5867 0 4.5 0.66 5.74 1.98 s1.86 3.2733 1.86 5.86 l0 14.88 c0 1.3333 -0.14 2.4933 -0.42 3.48 s-0.74 1.8134 -1.38 2.48 s-1.4733 1.16 -2.5 1.48 s-2.2867 0.48 -3.78 0.48 z M157.72 17.52 c0 -0.66668 -0.09328 -1.3468 -0.27996 -2.0401 s-0.49336 -1.3266 -0.92004 -1.9 s-0.99336 -1.04 -1.7 -1.4 s-1.58 -0.54 -2.62 -0.54 c-1.1467 0 -2.1 0.16 -2.86 0.48 s-1.36 0.76668 -1.8 1.34 s-0.75332 1.2466 -0.94 2.02 s-0.28 1.6133 -0.28 2.52 l0 14.2 c0 0.69332 0.08 1.4 0.24 2.12 s0.44668 1.38 0.86 1.98 s0.97332 1.0933 1.68 1.48 s1.5934 0.58 2.66 0.58 c1.1467 0 2.1 -0.15332 2.86 -0.46 s1.3667 -0.72668 1.82 -1.26 s0.78 -1.1666 0.98 -1.9 s0.3 -1.5266 0.3 -2.38 l0 -14.84 z M163.79999999999998 40 l0 -30 l2.16 0 l0 27.84 l10.2 0 l0 2.16 l-12.36 0 z M186.11999999999998 40.36 c-2.4533 0 -4.3536 -0.66672 -5.7 -2 s-2.02 -3.3066 -2.02 -5.92 l0 -22.44 l2.16 0 l0 22.32 c0 0.64 0.08668 1.3133 0.26 2.02 s0.47332 1.3467 0.9 1.92 s0.99336 1.0466 1.7 1.42 s1.58 0.56 2.62 0.56 c1.1467 0 2.0934 -0.16668 2.84 -0.5 s1.3467 -0.79332 1.8 -1.38 s0.77332 -1.28 0.96 -2.08 s0.28 -1.6533 0.28 -2.56 l0 -21.72 l2.12 0 l0 22.44 c0 2.6667 -0.64668 4.6532 -1.94 5.96 s-3.2866 1.96 -5.98 1.96 z M206.6 12.2 l0 27.8 l-2.32 0 l0 -27.8 l-6.52 0 l0 -2.2 l15.36 0 l0 2.2 l-6.52 0 z M215.72 40 l0 -30 l2.56 0 l0 30 l-2.56 0 z M229.72 40.36 c-5.04 0 -7.56 -2.64 -7.56 -7.92 l0 -14.8 c0 -2.6667 0.63332 -4.6532 1.9 -5.96 s3.3134 -1.96 6.14 -1.96 c2.5867 0 4.5 0.66 5.74 1.98 s1.86 3.2733 1.86 5.86 l0 14.88 c0 1.3333 -0.14 2.4933 -0.42 3.48 s-0.74 1.8134 -1.38 2.48 s-1.4733 1.16 -2.5 1.48 s-2.2867 0.48 -3.78 0.48 z M235.68 17.52 c0 -0.66668 -0.09328 -1.3468 -0.27996 -2.0401 s-0.49336 -1.3266 -0.92004 -1.9 s-0.99336 -1.04 -1.7 -1.4 s-1.58 -0.54 -2.62 -0.54 c-1.1467 0 -2.1 0.16 -2.86 0.48 s-1.36 0.76668 -1.8 1.34 s-0.75332 1.2466 -0.94 2.02 s-0.28 1.6133 -0.28 2.52 l0 14.2 c0 0.69332 0.08 1.4 0.24 2.12 s0.44668 1.38 0.86 1.98 s0.97332 1.0933 1.68 1.48 s1.5934 0.58 2.66 0.58 c1.1467 0 2.1 -0.15332 2.86 -0.46 s1.3667 -0.72668 1.82 -1.26 s0.78 -1.1666 0.98 -1.9 s0.3 -1.5266 0.3 -2.38 l0 -14.84 z M255.56 40 l-11.6 -25.76 l0 25.76 l-2.2 0 l0 -30 l2.36 0 l11.6 24.6 l0.28 -24.6 l2.16 0 l0 30 l-2.6 0 z M270.08 40.36 c-1.3067 0 -2.4669 -0.17348 -3.4802 -0.52016 s-1.8666 -0.9 -2.56 -1.66 s-1.2066 -1.7533 -1.54 -2.98 s-0.47332 -2.7067 -0.42 -4.44 l2.4 0 c0 0.85332 0.04 1.74 0.12 2.66 s0.29332 1.76 0.64 2.52 s0.87336 1.38 1.58 1.86 s1.6867 0.72 2.94 0.72 c1.0667 0 1.9734 -0.16 2.72 -0.48 s1.3534 -0.74668 1.82 -1.28 s0.79336 -1.16 0.98004 -1.88 s0.28 -1.4667 0.28 -2.24 c0 -0.90668 -0.16668 -1.7 -0.5 -2.38 s-0.77332 -1.2867 -1.32 -1.82 s-1.1867 -1.0066 -1.92 -1.42 s-1.5 -0.78 -2.3 -1.1 c-1.28 -0.50668 -2.4 -1.0067 -3.36 -1.5 s-1.7467 -1.0466 -2.36 -1.66 s-1.0733 -1.3266 -1.38 -2.14 s-0.46 -1.8066 -0.46 -2.98 c0 -2.6667 0.7 -4.6532 2.1 -5.96 s3.4067 -1.96 6.02 -1.96 c2.2667 0 4.06 0.66 5.38 1.98 s1.98 3.3 1.98 5.94 l0 2.2 l-2.24 0 l0 -2.4 c0 -0.82668 -0.1 -1.5934 -0.3 -2.3 s-0.51332 -1.3267 -0.94 -1.86 s-0.96668 -0.95332 -1.62 -1.26 s-1.4333 -0.46 -2.34 -0.46 c-2.1333 0 -3.66 0.56 -4.58 1.68 s-1.34 2.6267 -1.26 4.52 c0.02668 0.82668 0.18 1.5334 0.46 2.12 s0.65332 1.1 1.12 1.54 s1.0267 0.83332 1.68 1.18 s1.38 0.69336 2.18 1.04 c0.93332 0.4 1.86 0.82668 2.78 1.28 s1.78 1.0133 2.58 1.68 c0.8 0.69332 1.46 1.5 1.98 2.42 s0.78 2.06 0.78 3.42 c0 2.64 -0.67332 4.62 -2.02 5.94 s-3.22 1.98 -5.62 1.98 z"></path></g>
			</g>
		</svg>
	